{
  "source": "C:\\Users\\Peter\\Desktop\\stuff\\MIUN\\quantitative_research\\video_compression\\videos\\BVI-HD\\BVI-HD_CDVL_videos\\ORIG\\DiverFishAndRock_1920x1080_30fps.mp4",
  "output": "C:\\Users\\Peter\\Desktop\\stuff\\MIUN\\quantitative_research\\video_compression\\compressed_videos\\BVI-HD\\h264\\3\\DiverFishAndRock_1920x1080_30fps_h264.mp4",
  "codec": "h264",
  "ok": "Input #0, mov,mp4,m4a,3gp,3g2,mj2, from 'C:\\Users\\Peter\\Desktop\\stuff\\MIUN\\quantitative_research\\video_compression\\videos\\BVI-HD\\BVI-HD_CDVL_videos\\ORIG\\DiverFishAndRock_1920x1080_30fps.mp4':\n  Metadata:\n    major_brand     : isom\n    minor_version   : 512\n    compatible_brands: isomiso2avc1mp41\n    encoder         : Lavf54.28.101\n  Duration: 00:00:05.00, start: 0.000000, bitrate: 228854 kb/s\n  Stream #0:0[0x1](und): Video: h264 (High 4:4:4 Predictive) (avc1 / 0x31637661), yuv420p(progressive), 1920x1080, 228851 kb/s, 30 fps, 30 tbr, 30 tbn (default)\n    Metadata:\n      handler_name    : VideoHandler\n      vendor_id       : [0][0][0][0]\n[out#0/mp4 @ 000001594d869980] Codec AVOption b:a (set bitrate (in bits/s)) has not been used for any stream. The most likely reason is either wrong type (e.g. a video option with no video streams) or that it is a private option of some decoder which was not actually used for any stream.\nStream mapping:\n  Stream #0:0 -> #0:0 (h264 (native) -> h264 (libx264))\nPress [q] to stop, [?] for help\n[libx264 @ 000001594e1db840] using cpu capabilities: MMX2 SSE2Fast SSSE3 SSE4.2 AVX FMA3 BMI2 AVX2\n[libx264 @ 000001594e1db840] profile High, level 5.0, 4:2:0, 8-bit\n[libx264 @ 000001594e1db840] 264 - core 165 r3222 b35605a - H.264/MPEG-4 AVC codec - Copyleft 2003-2025 - http://www.videolan.org/x264.html - options: cabac=1 ref=5 deblock=1:0:0 analyse=0x3:0x113 me=hex subme=8 psy=1 psy_rd=1.00:0.00 mixed_ref=1 me_range=16 chroma_me=1 trellis=2 8x8dct=1 cqm=0 deadzone=21,11 fast_pskip=1 chroma_qp_offset=-2 threads=18 lookahead_threads=3 sliced_threads=0 nr=0 decimate=1 interlaced=0 bluray_compat=0 constrained_intra=0 bframes=3 b_pyramid=2 b_adapt=1 b_bias=0 direct=3 weightb=1 open_gop=0 weightp=2 keyint=250 keyint_min=25 scenecut=40 intra_refresh=0 rc_lookahead=50 rc=cbr mbtree=1 bitrate=3000 ratetol=1.0 qcomp=0.60 qpmin=0 qpmax=69 qpstep=4 vbv_maxrate=3000 vbv_bufsize=3000 nal_hrd=none filler=0 ip_ratio=1.40 aq=1:1.00\nOutput #0, mp4, to 'C:\\Users\\Peter\\Desktop\\stuff\\MIUN\\quantitative_research\\video_compression\\compressed_videos\\BVI-HD\\h264\\3\\DiverFishAndRock_1920x1080_30fps_h264.mp4':\n  Metadata:\n    major_brand     : isom\n    minor_version   : 512\n    compatible_brands: isomiso2avc1mp41\n    encoder         : Lavf62.3.100\n  Stream #0:0(und): Video: h264 (avc1 / 0x31637661), yuv420p(tv, progressive), 1920x1080, q=2-31, 3000 kb/s, 30 fps, 15360 tbn (default)\n    Metadata:\n      encoder         : Lavc62.11.100 libx264\n      handler_name    : VideoHandler\n      vendor_id       : [0][0][0][0]\n    Side data:\n      cpb: bitrate max/min/avg: 3000000/0/3000000 buffer size: 3000000 vbv_delay: N/A\nframe=    0 fps=0.0 q=0.0 size=       0KiB time=N/A bitrate=N/A speed=N/A elapsed=0:00:00.52    \nframe=    0 fps=0.0 q=0.0 size=       0KiB time=N/A bitrate=N/A speed=N/A elapsed=0:00:01.14    \nframe=    0 fps=0.0 q=0.0 size=       0KiB time=N/A bitrate=N/A speed=N/A elapsed=0:00:01.69    \nframe=   15 fps=6.4 q=35.0 size=       0KiB time=00:00:00.33 bitrate=   1.2kbits/s speed=0.143x elapsed=0:00:02.32    \nframe=   37 fps= 13 q=35.0 size=     256KiB time=00:00:01.03 bitrate=2029.9kbits/s speed=0.349x elapsed=0:00:02.95    \nframe=   56 fps= 16 q=34.0 size=     512KiB time=00:00:01.66 bitrate=2516.8kbits/s speed=0.466x elapsed=0:00:03.57    \nframe=   81 fps= 20 q=34.0 size=     768KiB time=00:00:02.53 bitrate=2483.6kbits/s speed=0.611x elapsed=0:00:04.14    \nframe=  109 fps= 23 q=34.0 size=    1024KiB time=00:00:03.56 bitrate=2352.1kbits/s speed=0.757x elapsed=0:00:04.71    \nframe=  129 fps= 25 q=30.0 size=    1280KiB time=00:00:04.23 bitrate=2477.0kbits/s speed=0.809x elapsed=0:00:05.23    \n[mp4 @ 000001594d869a80] Starting second pass: moving the moov atom to the beginning of the file\n[out#0/mp4 @ 000001594d869980] video:1579KiB audio:0KiB subtitle:0KiB other streams:0KiB global headers:0KiB muxing overhead: 0.165485%\nframe=  150 fps= 26 q=-1.0 Lsize=    1581KiB time=00:00:04.93 bitrate=2625.6kbits/s speed=0.87x elapsed=0:00:05.66    \n[libx264 @ 000001594e1db840] frame I:1     Avg QP:30.51  size: 45741\n[libx264 @ 000001594e1db840] frame P:38    Avg QP:31.71  size: 21220\n[libx264 @ 000001594e1db840] frame B:111   Avg QP:35.64  size:  6879\n[libx264 @ 000001594e1db840] consecutive B-frames:  1.3%  0.0%  0.0% 98.7%\n[libx264 @ 000001594e1db840] mb I  I16..4: 47.9% 48.9%  3.2%\n[libx264 @ 000001594e1db840] mb P  I16..4:  2.3%  7.8%  0.4%  P16..4: 41.6%  6.6%  3.2%  0.0%  0.0%    skip:38.1%\n[libx264 @ 000001594e1db840] mb B  I16..4:  0.1%  0.7%  0.0%  B16..8: 38.0%  2.5%  0.3%  direct: 1.0%  skip:57.5%  L0:39.3% L1:59.1% BI: 1.6%\n[libx264 @ 000001594e1db840] 8x8 transform intra:71.0% inter:79.2%\n[libx264 @ 000001594e1db840] direct mvs  spatial:91.0% temporal:9.0%\n[libx264 @ 000001594e1db840] coded y,uvDC,uvAC intra: 45.8% 47.1% 10.4% inter: 5.2% 5.4% 0.0%\n[libx264 @ 000001594e1db840] i16 v,h,dc,p: 12% 38%  9% 42%\n[libx264 @ 000001594e1db840] i8 v,h,dc,ddl,ddr,vr,hd,vl,hu:  8%  7%  9%  8% 15% 12% 16%  9% 13%\n[libx264 @ 000001594e1db840] i4 v,h,dc,ddl,ddr,vr,hd,vl,hu:  8%  7% 12%  7% 15% 12% 15%  8% 15%\n[libx264 @ 000001594e1db840] i8c dc,h,v,p: 44% 31% 14% 11%\n[libx264 @ 000001594e1db840] Weighted P-Frames: Y:13.2% UV:0.0%\n[libx264 @ 000001594e1db840] ref P L0: 49.6% 22.5% 16.5%  5.3%  5.5%  0.6%\n[libx264 @ 000001594e1db840] ref B L0: 87.4%  9.1%  2.9%  0.7%\n[libx264 @ 000001594e1db840] ref B L1: 96.1%  3.9%\n[libx264 @ 000001594e1db840] kb/s:2585.12\n",
  "seconds": 6.152134656906128,
  "probe_out": {}
}